# Blender 4.1.1
# www.blender.org
mtllib sphere.mtl
o Sphere
v 0.000000 0.707107 -0.707107
v 0.000000 0.258819 -0.965926
v 0.000000 -0.258819 -0.965926
v 0.000000 -0.500000 -0.866025
v 0.129410 0.965926 -0.224144
v 0.250000 0.866025 -0.433013
v 0.353553 0.707107 -0.612372
v 0.433013 0.500000 -0.750000
v 0.482963 0.258819 -0.836516
v 0.500000 0.000000 -0.866025
v 0.482963 -0.258819 -0.836516
v 0.433013 -0.500000 -0.750000
v 0.353553 -0.707107 -0.612372
v 0.250000 -0.866025 -0.433013
v 0.129410 -0.965926 -0.224144
v 0.224144 0.965926 -0.129410
v 0.433013 0.866025 -0.250000
v 0.612372 0.707107 -0.353553
v 0.750000 0.500000 -0.433013
v 0.836516 0.258819 -0.482963
v 0.866025 0.000000 -0.500000
v 0.836516 -0.258819 -0.482963
v 0.750000 -0.500000 -0.433013
v 0.612372 -0.707107 -0.353553
v 0.433013 -0.866025 -0.250000
v 0.224144 -0.965926 -0.129410
v 0.258819 0.965926 0.000000
v 0.500000 0.866025 0.000000
v 0.707107 0.707107 0.000000
v 0.866025 0.500000 0.000000
v 0.965926 0.258819 0.000000
v 1.000000 0.000000 0.000000
v 0.965926 -0.258819 0.000000
v 0.866025 -0.500000 0.000000
v 0.707107 -0.707107 0.000000
v 0.500000 -0.866025 0.000000
v 0.258819 -0.965926 0.000000
v 0.224144 0.965926 0.129410
v 0.433013 0.866025 0.250000
v 0.612372 0.707107 0.353553
v 0.750000 0.500000 0.433013
v 0.836516 0.258819 0.482963
v 0.866025 0.000000 0.500000
v 0.836516 -0.258819 0.482963
v 0.750000 -0.500000 0.433013
v 0.612372 -0.707107 0.353553
v 0.433013 -0.866025 0.250000
v 0.224144 -0.965926 0.129410
v 0.129410 0.965926 0.224144
v 0.250000 0.866025 0.433013
v 0.353553 0.707107 0.612372
v 0.433013 0.500000 0.750000
v 0.482963 0.258819 0.836516
v 0.500000 0.000000 0.866025
v 0.482963 -0.258819 0.836516
v 0.433013 -0.500000 0.750000
v 0.353553 -0.707107 0.612372
v 0.250000 -0.866025 0.433013
v 0.129410 -0.965926 0.224144
v 0.000000 0.965926 0.258819
v 0.000000 0.866025 0.500000
v -0.000000 0.707107 0.707107
v -0.000000 0.500000 0.866025
v -0.000000 0.258819 0.965926
v 0.000000 0.000000 1.000000
v -0.000000 -0.258819 0.965926
v -0.000000 -0.500000 0.866025
v -0.000000 -0.707107 0.707107
v 0.000000 -0.866025 0.500000
v 0.000000 -0.965926 0.258819
v -0.129410 0.965926 0.224144
v -0.250000 0.866025 0.433013
v -0.353553 0.707107 0.612372
v -0.433013 0.500000 0.750000
v -0.482963 0.258819 0.836516
v -0.500000 0.000000 0.866025
v -0.482963 -0.258819 0.836516
v -0.433013 -0.500000 0.750000
v -0.353553 -0.707107 0.612372
v -0.250000 -0.866025 0.433013
v -0.129410 -0.965926 0.224144
v -0.224144 0.965926 0.129410
v -0.433013 0.866025 0.250000
v -0.612372 0.707107 0.353553
v -0.750000 0.500000 0.433013
v -0.836516 0.258819 0.482963
v -0.866025 0.000000 0.500000
v -0.836516 -0.258819 0.482963
v -0.750000 -0.500000 0.433013
v -0.612372 -0.707107 0.353553
v -0.433013 -0.866025 0.250000
v -0.224144 -0.965926 0.129410
v 0.000000 1.000000 0.000000
v -0.258819 0.965926 0.000000
v -0.500000 0.866025 0.000000
v -0.707107 0.707107 -0.000000
v -0.866025 0.500000 -0.000000
v -0.965926 0.258819 -0.000000
v -1.000000 0.000000 0.000000
v -0.965926 -0.258819 -0.000000
v -0.866025 -0.500000 -0.000000
v -0.707107 -0.707107 -0.000000
v -0.500000 -0.866025 0.000000
v -0.258819 -0.965926 0.000000
v -0.224144 0.965926 -0.129410
v -0.433013 0.866025 -0.250000
v -0.612372 0.707107 -0.353553
v -0.750000 0.500000 -0.433013
v -0.836516 0.258819 -0.482963
v -0.866025 0.000000 -0.500000
v -0.836516 -0.258819 -0.482963
v -0.750000 -0.500000 -0.433013
v -0.612372 -0.707107 -0.353553
v -0.433013 -0.866025 -0.250000
v -0.224144 -0.965926 -0.129410
v -0.129410 0.965926 -0.224144
v -0.250000 0.866025 -0.433013
v -0.353553 0.707107 -0.612372
v -0.433013 0.500000 -0.750000
v -0.482963 0.258819 -0.836516
v -0.500000 0.000000 -0.866025
v -0.482963 -0.258819 -0.836516
v -0.433013 -0.500000 -0.750000
v -0.353553 -0.707107 -0.612372
v -0.250000 -0.866025 -0.433013
v -0.129410 -0.965926 -0.224144
v 0.000000 0.965926 -0.258819
v 0.000000 0.866025 -0.500000
v 0.000000 0.500000 -0.866025
v 0.000000 0.000000 -1.000000
v 0.000000 -0.707107 -0.707107
v 0.000000 -0.866025 -0.500000
v 0.000000 -0.965926 -0.258819
v 0.000000 -1.000000 0.000000
vn -0.0000 0.6965 -0.7176
vn -0.0000 0.2536 -0.9673
vn -0.0000 -0.2536 -0.9673
vn -0.0000 -0.4909 -0.8712
vn 0.1394 0.9603 -0.2415
vn 0.2580 0.8566 -0.4468
vn 0.3588 0.6965 -0.6215
vn 0.4356 0.4909 -0.7545
vn 0.4837 0.2536 -0.8377
vn 0.5000 -0.0000 -0.8660
vn 0.4837 -0.2536 -0.8377
vn 0.4356 -0.4909 -0.7545
vn 0.3588 -0.6965 -0.6215
vn 0.2580 -0.8566 -0.4468
vn 0.1394 -0.9603 -0.2415
vn 0.2415 0.9603 -0.1394
vn 0.4468 0.8566 -0.2580
vn 0.6215 0.6965 -0.3588
vn 0.7545 0.4909 -0.4356
vn 0.8377 0.2536 -0.4837
vn 0.8660 -0.0000 -0.5000
vn 0.8377 -0.2536 -0.4837
vn 0.7545 -0.4909 -0.4356
vn 0.6215 -0.6965 -0.3588
vn 0.4468 -0.8566 -0.2580
vn 0.2415 -0.9603 -0.1394
vn 0.2789 0.9603 -0.0000
vn 0.5159 0.8566 -0.0000
vn 0.7176 0.6965 -0.0000
vn 0.8712 0.4909 -0.0000
vn 0.9673 0.2536 -0.0000
vn 1.0000 -0.0000 -0.0000
vn 0.9673 -0.2536 -0.0000
vn 0.8712 -0.4909 -0.0000
vn 0.7176 -0.6965 -0.0000
vn 0.5159 -0.8566 -0.0000
vn 0.2789 -0.9603 -0.0000
vn 0.2415 0.9603 0.1394
vn 0.4468 0.8566 0.2580
vn 0.6215 0.6965 0.3588
vn 0.7545 0.4909 0.4356
vn 0.8377 0.2536 0.4837
vn 0.8660 -0.0000 0.5000
vn 0.8377 -0.2536 0.4837
vn 0.7545 -0.4909 0.4356
vn 0.6215 -0.6965 0.3588
vn 0.4468 -0.8566 0.2580
vn 0.2415 -0.9603 0.1394
vn 0.1394 0.9603 0.2415
vn 0.2580 0.8566 0.4468
vn 0.3588 0.6965 0.6215
vn 0.4356 0.4909 0.7545
vn 0.4837 0.2536 0.8377
vn 0.5000 -0.0000 0.8660
vn 0.4837 -0.2536 0.8377
vn 0.4356 -0.4909 0.7545
vn 0.3588 -0.6965 0.6215
vn 0.2580 -0.8566 0.4468
vn 0.1394 -0.9603 0.2415
vn -0.0000 0.9603 0.2789
vn -0.0000 0.8566 0.5159
vn -0.0000 0.6965 0.7176
vn -0.0000 0.4909 0.8712
vn -0.0000 0.2536 0.9673
vn -0.0000 -0.0000 1.0000
vn -0.0000 -0.2536 0.9673
vn -0.0000 -0.4909 0.8712
vn -0.0000 -0.6965 0.7176
vn -0.0000 -0.8566 0.5159
vn -0.0000 -0.9603 0.2789
vn -0.1394 0.9603 0.2415
vn -0.2580 0.8566 0.4468
vn -0.3588 0.6965 0.6215
vn -0.4356 0.4909 0.7545
vn -0.4837 0.2536 0.8377
vn -0.5000 -0.0000 0.8660
vn -0.4837 -0.2536 0.8377
vn -0.4356 -0.4909 0.7545
vn -0.3588 -0.6965 0.6215
vn -0.2580 -0.8566 0.4468
vn -0.1394 -0.9603 0.2415
vn -0.2415 0.9603 0.1394
vn -0.4468 0.8566 0.2580
vn -0.6215 0.6965 0.3588
vn -0.7545 0.4909 0.4356
vn -0.8377 0.2536 0.4837
vn -0.8660 -0.0000 0.5000
vn -0.8377 -0.2536 0.4837
vn -0.7545 -0.4909 0.4356
vn -0.6215 -0.6965 0.3588
vn -0.4468 -0.8566 0.2580
vn -0.2415 -0.9603 0.1394
vn -0.0000 1.0000 -0.0000
vn -0.2789 0.9603 -0.0000
vn -0.5159 0.8566 -0.0000
vn -0.7176 0.6965 -0.0000
vn -0.8712 0.4909 -0.0000
vn -0.9673 0.2536 -0.0000
vn -1.0000 -0.0000 -0.0000
vn -0.9673 -0.2536 -0.0000
vn -0.8712 -0.4909 -0.0000
vn -0.7176 -0.6965 -0.0000
vn -0.5159 -0.8566 -0.0000
vn -0.2789 -0.9603 -0.0000
vn -0.2415 0.9603 -0.1394
vn -0.4468 0.8566 -0.2580
vn -0.6215 0.6965 -0.3588
vn -0.7545 0.4909 -0.4356
vn -0.8377 0.2536 -0.4837
vn -0.8660 -0.0000 -0.5000
vn -0.8377 -0.2536 -0.4837
vn -0.7545 -0.4909 -0.4356
vn -0.6215 -0.6965 -0.3588
vn -0.4468 -0.8566 -0.2580
vn -0.2415 -0.9603 -0.1394
vn -0.1394 0.9603 -0.2415
vn -0.2580 0.8566 -0.4468
vn -0.3588 0.6965 -0.6215
vn -0.4356 0.4909 -0.7545
vn -0.4837 0.2536 -0.8377
vn -0.5000 -0.0000 -0.8660
vn -0.4837 -0.2536 -0.8377
vn -0.4356 -0.4909 -0.7545
vn -0.3588 -0.6965 -0.6215
vn -0.2580 -0.8566 -0.4468
vn -0.1394 -0.9603 -0.2415
vn -0.0000 0.9603 -0.2789
vn -0.0000 0.8566 -0.5159
vn -0.0000 0.4909 -0.8712
vn -0.0000 -0.0000 -1.0000
vn -0.0000 -0.6965 -0.7176
vn -0.0000 -0.8566 -0.5159
vn -0.0000 -0.9603 -0.2789
vn -0.0000 -1.0000 -0.0000
vt 0.750000 0.416667
vt 0.750000 0.500000
vt 0.666667 0.500000
vt 0.666667 0.416667
vt 0.750000 0.666667
vt 0.750000 0.750000
vt 0.666667 0.750000
vt 0.666667 0.666667
vt 0.750000 0.083333
vt 0.750000 0.166667
vt 0.666667 0.166667
vt 0.666667 0.083333
vt 0.750000 0.916667
vt 0.708333 1.000000
vt 0.666667 0.916667
vt 0.750000 0.333333
vt 0.666667 0.333333
vt 0.750000 0.583333
vt 0.666667 0.583333
vt 0.708333 0.000000
vt 0.750000 0.833333
vt 0.666667 0.833333
vt 0.750000 0.250000
vt 0.666667 0.250000
vt 0.625000 0.000000
vt 0.583333 0.083333
vt 0.583333 0.916667
vt 0.583333 0.833333
vt 0.583333 0.333333
vt 0.583333 0.250000
vt 0.583333 0.583333
vt 0.583333 0.500000
vt 0.583333 0.750000
vt 0.583333 0.166667
vt 0.583333 0.416667
vt 0.583333 0.666667
vt 0.625000 1.000000
vt 0.500000 0.750000
vt 0.500000 0.666667
vt 0.500000 0.166667
vt 0.500000 0.083333
vt 0.541667 1.000000
vt 0.500000 0.916667
vt 0.500000 0.416667
vt 0.500000 0.333333
vt 0.500000 0.583333
vt 0.541667 0.000000
vt 0.500000 0.833333
vt 0.500000 0.250000
vt 0.500000 0.500000
vt 0.416667 0.833333
vt 0.416667 0.750000
vt 0.416667 0.250000
vt 0.416667 0.166667
vt 0.416667 0.500000
vt 0.416667 0.416667
vt 0.416667 0.666667
vt 0.416667 0.083333
vt 0.458333 1.000000
vt 0.416667 0.916667
vt 0.416667 0.333333
vt 0.416667 0.583333
vt 0.458333 0.000000
vt 0.333333 0.666667
vt 0.333333 0.583333
vt 0.375000 0.000000
vt 0.333333 0.083333
vt 0.333333 0.916667
vt 0.333333 0.833333
vt 0.333333 0.333333
vt 0.333333 0.250000
vt 0.333333 0.500000
vt 0.333333 0.750000
vt 0.333333 0.166667
vt 0.333333 0.416667
vt 0.375000 1.000000
vt 0.250000 0.750000
vt 0.250000 0.666667
vt 0.250000 0.166667
vt 0.250000 0.083333
vt 0.291667 1.000000
vt 0.250000 0.916667
vt 0.250000 0.416667
vt 0.250000 0.333333
vt 0.250000 0.583333
vt 0.291667 0.000000
vt 0.250000 0.833333
vt 0.250000 0.250000
vt 0.250000 0.500000
vt 0.166667 0.583333
vt 0.166667 0.500000
vt 0.166667 0.833333
vt 0.166667 0.750000
vt 0.166667 0.250000
vt 0.166667 0.166667
vt 0.166667 0.416667
vt 0.166667 0.666667
vt 0.166667 0.083333
vt 0.208333 1.000000
vt 0.166667 0.916667
vt 0.166667 0.333333
vt 0.208333 0.000000
vt 0.083333 0.666667
vt 0.083333 0.583333
vt 0.125000 0.000000
vt 0.083333 0.083333
vt 0.083333 0.916667
vt 0.083333 0.833333
vt 0.083333 0.333333
vt 0.083333 0.250000
vt 0.083333 0.500000
vt 0.083333 0.750000
vt 0.083333 0.166667
vt 0.083333 0.416667
vt 0.125000 1.000000
vt 0.000000 0.500000
vt 0.000000 0.416667
vt 0.000000 0.750000
vt 0.000000 0.666667
vt 0.000000 0.166667
vt 0.000000 0.083333
vt 0.041667 1.000000
vt 0.000000 0.916667
vt 0.000000 0.333333
vt 0.000000 0.583333
vt 0.041667 0.000000
vt 0.000000 0.833333
vt 0.000000 0.250000
vt 1.000000 0.500000
vt 1.000000 0.583333
vt 0.916667 0.583333
vt 0.916667 0.500000
vt 1.000000 0.750000
vt 1.000000 0.833333
vt 0.916667 0.833333
vt 0.916667 0.750000
vt 1.000000 0.166667
vt 1.000000 0.250000
vt 0.916667 0.250000
vt 0.916667 0.166667
vt 1.000000 0.416667
vt 0.916667 0.416667
vt 1.000000 0.666667
vt 0.916667 0.666667
vt 1.000000 0.083333
vt 0.916667 0.083333
vt 1.000000 0.916667
vt 0.958333 1.000000
vt 0.916667 0.916667
vt 1.000000 0.333333
vt 0.916667 0.333333
vt 0.958333 0.000000
vt 0.833333 0.416667
vt 0.833333 0.333333
vt 0.833333 0.666667
vt 0.833333 0.583333
vt 0.875000 0.000000
vt 0.833333 0.083333
vt 0.833333 0.916667
vt 0.833333 0.833333
vt 0.833333 0.250000
vt 0.833333 0.500000
vt 0.833333 0.750000
vt 0.833333 0.166667
vt 0.875000 1.000000
vt 0.791667 1.000000
vt 0.791667 0.000000
s 1
usemtl Sphere_Mat
f 3/1/3 130/2/130 10/3/10 11/4/11
f 129/5/129 1/6/1 7/7/7 8/8/8
f 133/9/133 132/10/132 14/11/14 15/12/15
f 127/13/127 93/14/93 5/15/5
f 4/16/4 3/1/3 11/4/11 12/17/12
f 2/18/2 129/5/129 8/8/8 9/19/9
f 134/20/134 133/9/133 15/12/15
f 128/21/128 127/13/127 5/15/5 6/22/6
f 131/23/131 4/16/4 12/17/12 13/24/13
f 130/2/130 2/18/2 9/19/9 10/3/10
f 1/6/1 128/21/128 6/22/6 7/7/7
f 132/10/132 131/23/131 13/24/13 14/11/14
f 134/25/134 15/12/15 26/26/26
f 6/22/6 5/15/5 16/27/16 17/28/17
f 13/24/13 12/17/12 23/29/23 24/30/24
f 10/3/10 9/19/9 20/31/20 21/32/21
f 7/7/7 6/22/6 17/28/17 18/33/18
f 14/11/14 13/24/13 24/30/24 25/34/25
f 11/4/11 10/3/10 21/32/21 22/35/22
f 8/8/8 7/7/7 18/33/18 19/36/19
f 15/12/15 14/11/14 25/34/25 26/26/26
f 5/15/5 93/37/93 16/27/16
f 12/17/12 11/4/11 22/35/22 23/29/23
f 9/19/9 8/8/8 19/36/19 20/31/20
f 19/36/19 18/33/18 29/38/29 30/39/30
f 26/26/26 25/34/25 36/40/36 37/41/37
f 16/27/16 93/42/93 27/43/27
f 23/29/23 22/35/22 33/44/33 34/45/34
f 20/31/20 19/36/19 30/39/30 31/46/31
f 134/47/134 26/26/26 37/41/37
f 17/28/17 16/27/16 27/43/27 28/48/28
f 24/30/24 23/29/23 34/45/34 35/49/35
f 21/32/21 20/31/20 31/46/31 32/50/32
f 18/33/18 17/28/17 28/48/28 29/38/29
f 25/34/25 24/30/24 35/49/35 36/40/36
f 22/35/22 21/32/21 32/50/32 33/44/33
f 29/38/29 28/48/28 39/51/39 40/52/40
f 36/40/36 35/49/35 46/53/46 47/54/47
f 33/44/33 32/50/32 43/55/43 44/56/44
f 30/39/30 29/38/29 40/52/40 41/57/41
f 37/41/37 36/40/36 47/54/47 48/58/48
f 27/43/27 93/59/93 38/60/38
f 34/45/34 33/44/33 44/56/44 45/61/45
f 31/46/31 30/39/30 41/57/41 42/62/42
f 134/63/134 37/41/37 48/58/48
f 28/48/28 27/43/27 38/60/38 39/51/39
f 35/49/35 34/45/34 45/61/45 46/53/46
f 32/50/32 31/46/31 42/62/42 43/55/43
f 42/62/42 41/57/41 52/64/52 53/65/53
f 134/66/134 48/58/48 59/67/59
f 39/51/39 38/60/38 49/68/49 50/69/50
f 46/53/46 45/61/45 56/70/56 57/71/57
f 43/55/43 42/62/42 53/65/53 54/72/54
f 40/52/40 39/51/39 50/69/50 51/73/51
f 47/54/47 46/53/46 57/71/57 58/74/58
f 44/56/44 43/55/43 54/72/54 55/75/55
f 41/57/41 40/52/40 51/73/51 52/64/52
f 48/58/48 47/54/47 58/74/58 59/67/59
f 38/60/38 93/76/93 49/68/49
f 45/61/45 44/56/44 55/75/55 56/70/56
f 52/64/52 51/73/51 62/77/62 63/78/63
f 59/67/59 58/74/58 69/79/69 70/80/70
f 49/68/49 93/81/93 60/82/60
f 56/70/56 55/75/55 66/83/66 67/84/67
f 53/65/53 52/64/52 63/78/63 64/85/64
f 134/86/134 59/67/59 70/80/70
f 50/69/50 49/68/49 60/82/60 61/87/61
f 57/71/57 56/70/56 67/84/67 68/88/68
f 54/72/54 53/65/53 64/85/64 65/89/65
f 51/73/51 50/69/50 61/87/61 62/77/62
f 58/74/58 57/71/57 68/88/68 69/79/69
f 55/75/55 54/72/54 65/89/65 66/83/66
f 65/89/65 64/85/64 75/90/75 76/91/76
f 62/77/62 61/87/61 72/92/72 73/93/73
f 69/79/69 68/88/68 79/94/79 80/95/80
f 66/83/66 65/89/65 76/91/76 77/96/77
f 63/78/63 62/77/62 73/93/73 74/97/74
f 70/80/70 69/79/69 80/95/80 81/98/81
f 60/82/60 93/99/93 71/100/71
f 67/84/67 66/83/66 77/96/77 78/101/78
f 64/85/64 63/78/63 74/97/74 75/90/75
f 134/102/134 70/80/70 81/98/81
f 61/87/61 60/82/60 71/100/71 72/92/72
f 68/88/68 67/84/67 78/101/78 79/94/79
f 75/90/75 74/97/74 85/103/85 86/104/86
f 134/105/134 81/98/81 92/106/92
f 72/92/72 71/100/71 82/107/82 83/108/83
f 79/94/79 78/101/78 89/109/89 90/110/90
f 76/91/76 75/90/75 86/104/86 87/111/87
f 73/93/73 72/92/72 83/108/83 84/112/84
f 80/95/80 79/94/79 90/110/90 91/113/91
f 77/96/77 76/91/76 87/111/87 88/114/88
f 74/97/74 73/93/73 84/112/84 85/103/85
f 81/98/81 80/95/80 91/113/91 92/106/92
f 71/100/71 93/115/93 82/107/82
f 78/101/78 77/96/77 88/114/88 89/109/89
f 88/114/88 87/111/87 99/116/99 100/117/100
f 85/103/85 84/112/84 96/118/96 97/119/97
f 92/106/92 91/113/91 103/120/103 104/121/104
f 82/107/82 93/122/93 94/123/94
f 89/109/89 88/114/88 100/117/100 101/124/101
f 86/104/86 85/103/85 97/119/97 98/125/98
f 134/126/134 92/106/92 104/121/104
f 83/108/83 82/107/82 94/123/94 95/127/95
f 90/110/90 89/109/89 101/124/101 102/128/102
f 87/111/87 86/104/86 98/125/98 99/116/99
f 84/112/84 83/108/83 95/127/95 96/118/96
f 91/113/91 90/110/90 102/128/102 103/120/103
f 99/129/99 98/130/98 109/131/109 110/132/110
f 96/133/96 95/134/95 106/135/106 107/136/107
f 103/137/103 102/138/102 113/139/113 114/140/114
f 100/141/100 99/129/99 110/132/110 111/142/111
f 97/143/97 96/133/96 107/136/107 108/144/108
f 104/145/104 103/137/103 114/140/114 115/146/115
f 94/147/94 93/148/93 105/149/105
f 101/150/101 100/141/100 111/142/111 112/151/112
f 98/130/98 97/143/97 108/144/108 109/131/109
f 134/152/134 104/145/104 115/146/115
f 95/134/95 94/147/94 105/149/105 106/135/106
f 102/138/102 101/150/101 112/151/112 113/139/113
f 112/151/112 111/142/111 122/153/122 123/154/123
f 109/131/109 108/144/108 119/155/119 120/156/120
f 134/157/134 115/146/115 126/158/126
f 106/135/106 105/149/105 116/159/116 117/160/117
f 113/139/113 112/151/112 123/154/123 124/161/124
f 110/132/110 109/131/109 120/156/120 121/162/121
f 107/136/107 106/135/106 117/160/117 118/163/118
f 114/140/114 113/139/113 124/161/124 125/164/125
f 111/142/111 110/132/110 121/162/121 122/153/122
f 108/144/108 107/136/107 118/163/118 119/155/119
f 115/146/115 114/140/114 125/164/125 126/158/126
f 105/149/105 93/165/93 116/159/116
f 122/153/122 121/162/121 130/2/130 3/1/3
f 119/155/119 118/163/118 1/6/1 129/5/129
f 126/158/126 125/164/125 132/10/132 133/9/133
f 116/159/116 93/166/93 127/13/127
f 123/154/123 122/153/122 3/1/3 4/16/4
f 120/156/120 119/155/119 129/5/129 2/18/2
f 134/167/134 126/158/126 133/9/133
f 117/160/117 116/159/116 127/13/127 128/21/128
f 124/161/124 123/154/123 4/16/4 131/23/131
f 121/162/121 120/156/120 2/18/2 130/2/130
f 118/163/118 117/160/117 128/21/128 1/6/1
f 125/164/125 124/161/124 131/23/131 132/10/132
